<svg id="visual" viewBox="0 0 900 600" width="900" height="600" xmlns="http://www.w3.org/2000/svg" xmlns:xlink="http://www.w3.org/1999/xlink" version="1.1"><rect x="0" y="0" width="900" height="600" fill="#001220"></rect><path d="M0 409L21.5 410.2C43 411.3 86 413.7 128.8 415.8C171.7 418 214.3 420 257.2 416.5C300 413 343 404 385.8 396.3C428.7 388.7 471.3 382.3 514.2 387.3C557 392.3 600 408.7 642.8 407.3C685.7 406 728.3 387 771.2 377.3C814 367.7 857 367.3 878.5 367.2L900 367L900 601L878.5 601C857 601 814 601 771.2 601C728.3 601 685.7 601 642.8 601C600 601 557 601 514.2 601C471.3 601 428.7 601 385.8 601C343 601 300 601 257.2 601C214.3 601 171.7 601 128.8 601C86 601 43 601 21.5 601L0 601Z" fill="#fa7268"></path><path d="M0 456L21.5 456.7C43 457.3 86 458.7 128.8 449.5C171.7 440.3 214.3 420.7 257.2 416C300 411.3 343 421.7 385.8 428.2C428.7 434.7 471.3 437.3 514.2 434.5C557 431.7 600 423.3 642.8 420.3C685.7 417.3 728.3 419.7 771.2 418.5C814 417.3 857 412.7 878.5 410.3L900 408L900 601L878.5 601C857 601 814 601 771.2 601C728.3 601 685.7 601 642.8 601C600 601 557 601 514.2 601C471.3 601 428.7 601 385.8 601C343 601 300 601 257.2 601C214.3 601 171.7 601 128.8 601C86 601 43 601 21.5 601L0 601Z" fill="#ef5f67"></path><path d="M0 498L21.5 493.3C43 488.7 86 479.3 128.8 479.7C171.7 480 214.3 490 257.2 487.3C300 484.7 343 469.3 385.8 469.5C428.7 469.7 471.3 485.3 514.2 490.2C557 495 600 489 642.8 486.5C685.7 484 728.3 485 771.2 484.3C814 483.7 857 481.3 878.5 480.2L900 479L900 601L878.5 601C857 601 814 601 771.2 601C728.3 601 685.7 601 642.8 601C600 601 557 601 514.2 601C471.3 601 428.7 601 385.8 601C343 601 300 601 257.2 601C214.3 601 171.7 601 128.8 601C86 601 43 601 21.5 601L0 601Z" fill="#e34c67"></path><path d="M0 506L21.5 503.5C43 501 86 496 128.8 499.3C171.7 502.7 214.3 514.3 257.2 517.2C300 520 343 514 385.8 508.8C428.7 503.7 471.3 499.3 514.2 496.3C557 493.3 600 491.7 642.8 491.8C685.7 492 728.3 494 771.2 502.3C814 510.7 857 525.3 878.5 532.7L900 540L900 601L878.5 601C857 601 814 601 771.2 601C728.3 601 685.7 601 642.8 601C600 601 557 601 514.2 601C471.3 601 428.7 601 385.8 601C343 601 300 601 257.2 601C214.3 601 171.7 601 128.8 601C86 601 43 601 21.5 601L0 601Z" fill="#d53867"></path><path d="M0 525L21.5 526.5C43 528 86 531 128.8 536.8C171.7 542.7 214.3 551.3 257.2 553.3C300 555.3 343 550.7 385.8 552C428.7 553.3 471.3 560.7 514.2 558.7C557 556.7 600 545.3 642.8 539C685.7 532.7 728.3 531.3 771.2 536.8C814 542.3 857 554.7 878.5 560.8L900 567L900 601L878.5 601C857 601 814 601 771.2 601C728.3 601 685.7 601 642.8 601C600 601 557 601 514.2 601C471.3 601 428.7 601 385.8 601C343 601 300 601 257.2 601C214.3 601 171.7 601 128.8 601C86 601 43 601 21.5 601L0 601Z" fill="#c62368"></path></svg>